<svg width="60" height="60" viewBox="0 0 60 60" fill="none" xmlns="http://www.w3.org/2000/svg">
<g clip-path="url(#clip0_1_984)">
<path d="M2.05716 0.213867H43.2004C44.3365 0.213867 45.2576 1.13497 45.2576 2.27103V57.8144C45.2576 58.9505 44.3365 59.8716 43.2004 59.8716H2.05716C0.921102 59.8716 0 58.9505 0 57.8144V2.27103C0 1.13497 0.921102 0.213867 2.05716 0.213867Z" fill="#57B7EB"/>
<path d="M25.7145 51.6429C15.4895 51.6429 7.20007 43.3535 7.20007 33.1285V0.213867H2.05716C0.921102 0.213867 0 1.13497 0 2.27103V57.8144C0 58.9505 0.921102 59.8716 2.05716 59.8716H43.2004C44.3365 59.8716 45.2576 58.9505 45.2576 57.8144V51.6429H25.7145Z" fill="#4891D3"/>
<path d="M9.25723 6.38538H36.0003V10.4997H9.25723V6.38538Z" fill="#F9E109"/>
<path d="M32.9146 15.6426H12.343C11.7749 15.6426 11.3144 15.1821 11.3144 14.614C11.3144 14.046 11.7749 13.5854 12.343 13.5854H32.9146C33.4826 13.5854 33.9432 14.046 33.9432 14.614C33.9432 15.1821 33.4826 15.6426 32.9146 15.6426Z" fill="#39519D"/>
<path d="M39.0861 22.8427H16.4573C15.8893 22.8427 15.4287 22.3821 15.4287 21.8141C15.4287 21.2461 15.8893 20.7855 16.4573 20.7855H39.0861C39.6541 20.7855 40.1147 21.2461 40.1147 21.8141C40.1147 22.3821 39.6541 22.8427 39.0861 22.8427Z" fill="#39519D"/>
<path d="M27.7717 29.0142H7.20007C6.63204 29.0142 6.17149 28.5536 6.17149 27.9856C6.17149 27.4176 6.63204 26.957 7.20007 26.957H27.7717C28.3397 26.957 28.8003 27.4176 28.8003 27.9856C28.8003 28.5536 28.3397 29.0142 27.7717 29.0142Z" fill="#39519D"/>
<path d="M39.0861 29.0142H31.886C31.318 29.0142 30.8574 28.5536 30.8574 27.9856C30.8574 27.4176 31.318 26.957 31.886 26.957H39.0861C39.6541 26.957 40.1147 27.4176 40.1147 27.9856C40.1147 28.5536 39.6541 29.0142 39.0861 29.0142Z" fill="#39519D"/>
<path d="M17.4859 34.157H7.20007C6.63204 34.157 6.17149 33.6965 6.17149 33.1284C6.17149 32.5604 6.63204 32.0999 7.20007 32.0999H17.4859C18.0539 32.0999 18.5145 32.5604 18.5145 33.1284C18.5145 33.6965 18.0539 34.157 17.4859 34.157Z" fill="#39519D"/>
<path d="M28.8003 34.157H21.6002C21.0322 34.157 20.5716 33.6965 20.5716 33.1284C20.5716 32.5604 21.0322 32.0999 21.6002 32.0999H28.8003C29.3683 32.0999 29.8289 32.5604 29.8289 33.1284C29.8289 33.6965 29.3683 34.157 28.8003 34.157Z" fill="#39519D"/>
<path d="M36.0003 10.4997H9.25723V6.38538L36.0003 10.4997Z" fill="#FCBC04"/>
<path d="M19.543 48.0429C19.543 52.3033 16.0892 55.7572 11.8287 55.7572C7.56821 55.7572 4.11432 52.3033 4.11432 48.0429C4.11432 43.7824 7.56821 40.3285 11.8287 40.3285C16.0892 40.3285 19.543 43.7824 19.543 48.0429Z" fill="#F9E109"/>
<path d="M11.8287 55.7572C15.1691 55.7562 18.1292 53.6057 19.1623 50.429C14.6357 48.7114 10.9613 45.2886 8.92827 40.894C5.50753 42.2817 3.54931 45.8978 4.25646 49.5205C4.9631 53.1431 8.13774 55.7577 11.8287 55.7572Z" fill="#FCBC04"/>
<path d="M24.686 52.6714C24.574 52.675 24.4625 52.6579 24.357 52.6197C23.8216 52.4394 23.5323 51.8603 23.7086 51.3239L26.2389 43.7331C26.5487 42.8065 27.4673 42.2259 28.4367 42.3429C29.4065 42.46 30.1598 43.2429 30.2402 44.2163L30.5902 48.3306L30.9604 47.7033C31.3536 47.0173 32.1055 46.6175 32.894 46.6747C33.67 46.7395 34.343 47.2372 34.6323 47.9605L35.2907 49.5857L38.284 45.7797C38.4538 45.5648 38.7024 45.4267 38.9746 45.3955C39.2468 45.3649 39.5205 45.4438 39.734 45.615C40.1754 45.9686 40.2488 46.6115 39.8987 47.0554L36.8953 50.8714C36.4373 51.4435 35.7101 51.7287 34.9853 51.6208C34.2606 51.5128 33.6484 51.0276 33.3777 50.3466L32.7398 48.7319L32.3591 49.3592C31.9111 50.1206 31.0272 50.5108 30.1628 50.329C29.2985 50.1477 28.6466 49.434 28.5431 48.5571L28.1936 44.381L25.7145 51.9306C25.5824 52.3847 25.1581 52.69 24.686 52.6714Z" fill="#39519D"/>
<path d="M11.5615 50.9639C11.0181 50.9644 10.4968 50.7499 10.111 50.3672L7.93032 48.1865C7.73545 47.9937 7.62597 47.7305 7.62597 47.4563C7.62597 47.182 7.73545 46.9194 7.93032 46.726C8.33161 46.3272 8.97949 46.3272 9.38078 46.726L11.5615 48.9067L15.2022 45.2761C15.6105 44.9265 16.2187 44.9501 16.5989 45.3298C16.9786 45.71 17.0022 46.3182 16.6527 46.726L13.022 50.3672C12.6338 50.7524 12.1079 50.9669 11.5615 50.9639Z" fill="#39519D"/>
<path d="M50.8183 20.1948L56.1631 23.2806L46.9059 39.315L41.5611 36.2292L50.8183 20.1948Z" fill="#FCBC04"/>
<path d="M46.3891 27.8619L41.5546 36.2141L46.9034 39.2999L48.4669 36.5742C47.3072 33.8014 46.6056 30.8593 46.3891 27.8619Z" fill="#E59730"/>
<path d="M46.9034 39.3205L41.5546 36.2347L39.3638 42.0873L42.9227 44.1445L46.9034 39.3205Z" fill="#A1D51C"/>
<path d="M39.523 42.2742L43.1025 44.3313L42.0739 46.1208C41.5059 47.1092 40.2442 47.4502 39.2558 46.8822C38.2674 46.3142 37.9264 45.052 38.4945 44.0636L39.523 42.2742Z" fill="#E59730"/>
<path d="M53.8951 14.8545L59.2399 17.9402L56.1541 23.285L50.8093 20.1993L53.8951 14.8545Z" fill="#FCBC04"/>
<path d="M58.6246 12.835C59.6085 13.403 59.9455 14.6611 59.3775 15.645L58.3489 17.4265L54.786 15.3693L55.8146 13.5879C56.3826 12.604 57.6407 12.2665 58.6246 12.835Z" fill="#C4F236"/>
<path d="M49.4131 22.6397L50.4417 20.8583L55.7865 23.944L54.7579 25.7255L49.4131 22.6397Z" fill="#E59730"/>
<path d="M54.5766 35.278C54.3963 35.2795 54.219 35.2333 54.0623 35.1444C53.8257 35.0067 53.654 34.7807 53.5847 34.5166C53.5149 34.2524 53.5535 33.9711 53.6921 33.7351L57.8065 26.6068C57.9431 26.3703 57.9802 26.089 57.9089 25.8254C57.8381 25.5602 57.6643 25.3342 57.4258 25.1981L48.5181 20.0552C48.0284 19.7724 47.8587 19.1476 48.1374 18.6559C48.2735 18.4179 48.4985 18.2441 48.7632 18.1728C49.0274 18.101 49.3096 18.1381 49.5467 18.2757L58.4544 23.4186C59.1635 23.827 59.6813 24.5 59.8943 25.2905C60.1072 26.082 59.9962 26.9258 59.5859 27.6354L55.4716 34.7637C55.2867 35.0831 54.9452 35.2795 54.5766 35.278Z" fill="#39519D"/>
<path d="M57.6006 13.5854C57.6056 13.2379 57.6543 12.8924 57.7447 12.5569C56.9597 12.5036 56.2129 12.9029 55.8211 13.5854L54.7925 15.3649L58.3514 17.422L58.8657 16.5376C58.0556 15.7697 57.5975 14.7014 57.6006 13.5854Z" fill="#A1D51C"/>
</g>
<defs>
<clipPath id="clip0_1_984">
<rect width="60" height="60" fill="white"/>
</clipPath>
</defs>
</svg>
