<svg width="60" height="60" viewBox="0 0 60 60" fill="none" xmlns="http://www.w3.org/2000/svg">
<path fill-rule="evenodd" clip-rule="evenodd" d="M4.20362 34.6592C2.53991 34.6592 1.18182 35.9182 1.18182 37.4529V53.2158C1.18182 54.7506 2.54003 56.0063 4.20362 56.0063H7.4346C9.09831 56.0063 10.4564 54.7506 10.4564 53.2158V51.3654V39.3V37.453C10.4564 35.9182 9.09819 34.6593 7.4346 34.6593H4.20362V34.6592Z" fill="#A0E5A5"/>
<path fill-rule="evenodd" clip-rule="evenodd" d="M35.3119 36.3035H16.7127C16.447 36.3035 16.1814 36.3167 15.9191 36.3433C13.6809 36.5593 11.7184 37.6788 10.4565 39.2999V51.3655L19.6117 55.4715C21.7834 56.2687 25.0011 56.3119 32.7184 56.3518C38.948 56.3585 39.7616 56.3585 40.9438 56.3585C43.8294 56.3585 44.9618 56.0894 46.32 54.7473L57.7298 44.2065C58.4537 43.5387 58.819 42.6551 58.819 41.7714C58.819 40.8877 58.4537 40.0041 57.7298 39.3331C56.5809 38.2701 54.8508 38.0508 53.4594 38.6687C53.0941 38.8314 52.7521 39.054 52.45 39.3331L44.4571 46.7146C43.7962 47.3259 42.4414 47.4986 40.957 47.4953C37.2943 47.4854 31.4 47.4754 27.7373 47.4687C26.1732 47.4687 24.8948 46.2895 24.8948 44.8443C24.8948 43.3992 26.1734 42.2166 27.7373 42.2166H35.3119C37.0752 42.2166 38.513 40.8878 38.513 39.26C38.513 38.7583 38.3768 38.2833 38.1344 37.868C37.5932 36.9379 36.5305 36.3035 35.3119 36.3035Z" fill="#FFDCD5"/>
<path fill-rule="evenodd" clip-rule="evenodd" d="M24.8052 17.7368C23.4504 20.2615 21.6937 22.4441 19.532 23.733C18.6687 24.2512 18.4362 24.2512 17.5694 23.733C17.0215 23.4075 16.5002 23.0222 16.0053 22.5869C15.2083 24.7695 14.7733 27.1281 14.7733 29.5864C14.7733 31.955 15.1785 34.2273 15.919 36.3433C16.1814 36.3167 16.447 36.3035 16.7126 36.3035H35.3117C36.5305 36.3035 37.593 36.9379 38.1343 37.8682C38.3768 38.2834 38.5128 38.7585 38.5128 39.2601C38.5128 40.8879 37.0749 42.2168 35.3117 42.2168H27.7372C26.1731 42.2168 24.8947 43.3994 24.8947 44.8445C24.8947 46.2895 26.1732 47.4689 27.7372 47.4689C31.3999 47.4756 37.2942 47.4855 40.9569 47.4955C42.4412 47.4988 43.7961 47.326 44.4569 46.7148L52.4498 39.3333C52.7521 39.0542 53.094 38.8316 53.4593 38.6688C54.8208 35.9348 55.5879 32.8487 55.5879 29.5864C55.5879 18.3116 46.4526 9.16931 35.1822 9.16931C32.2168 9.16931 29.4009 9.80376 26.8573 10.9399C26.7112 13.1823 25.9973 15.5143 24.8052 17.7368Z" fill="#FFCD69"/>
<path fill-rule="evenodd" clip-rule="evenodd" d="M18.5523 3.64148L10.8882 7.77738C9.88873 8.3155 9.61638 8.44839 9.60642 9.65425C9.58322 12.375 10.3768 15.2585 11.8412 17.9892C12.927 20.0123 14.252 21.8294 15.8161 23.1981C16.3507 23.6632 16.9119 24.0751 17.4997 24.4273C18.4262 24.982 18.6752 24.982 19.605 24.4273C21.9228 23.042 23.8057 20.7033 25.2601 17.9892C26.5386 15.6074 27.309 13.1059 27.465 10.6975C27.4882 10.3486 27.4981 9.99984 27.4949 9.65437C27.4849 8.44851 27.216 8.31562 26.2163 7.77749L18.5523 3.64148Z" fill="#A0E5A5"/>
<path d="M58.5323 38.4657C57.6627 37.6613 56.5432 37.2267 55.4029 37.1593C56.3094 34.7487 56.7698 32.2108 56.7698 29.5865C56.7698 24.95 55.3253 20.5324 52.5922 16.8114C52.2059 16.2852 51.4661 16.172 50.9401 16.5585C50.4141 16.945 50.3009 17.6846 50.6872 18.2106C53.1203 21.5231 54.4062 25.4568 54.4062 29.5865C54.4062 32.4646 53.7861 35.2253 52.566 37.7996C52.239 37.9829 51.9302 38.2041 51.648 38.4651L43.6545 45.8472C43.5357 45.957 42.9943 46.3136 40.998 46.3136C40.9855 46.3136 40.9729 46.3136 40.9602 46.3136C37.8222 46.3051 33.0464 46.2966 29.4388 46.2901L27.7372 46.2871C26.8215 46.2871 26.0766 45.6399 26.0766 44.8445C26.0766 44.0608 26.8371 43.3986 27.7372 43.3986H35.3118C37.7285 43.3986 39.6947 41.5422 39.6947 39.2603C39.6947 39.0476 39.6775 38.8387 39.6445 38.6345C41.5277 37.7881 42.7929 35.9076 42.7929 33.7557C42.7929 30.8053 40.4081 28.4048 37.4768 28.4048H32.9175C31.2711 28.4048 29.9319 27.0632 29.9319 25.414C29.9319 23.7668 31.2712 22.4267 32.9175 22.4267H35.1694H35.1723H41.6111C42.2638 22.4267 42.7929 21.8976 42.7929 21.2449C42.7929 20.5922 42.2638 20.0631 41.6111 20.0631H36.3571L36.3641 17.2183C36.3657 16.5654 35.8379 16.0352 35.1852 16.0335C35.1843 16.0335 35.1832 16.0335 35.1823 16.0335C34.5309 16.0335 34.0022 16.5608 34.0004 17.2123L33.9934 20.0631H32.9176C29.968 20.0631 27.5684 22.4635 27.5684 25.414C27.5684 28.3665 29.9681 30.7683 32.9176 30.7683H37.4769C39.0773 30.7683 40.4293 32.1364 40.4293 33.7557C40.4293 34.9668 39.6703 36.053 38.5845 36.5115C37.7811 35.6597 36.612 35.1218 35.3119 35.1218H16.7652C16.2278 33.3293 15.9553 31.4716 15.9553 29.5866C15.9553 28.0871 16.1268 26.6089 16.4645 25.1729C16.6061 25.2658 16.7487 25.3553 16.8925 25.4413C17.543 25.831 18.0465 26.0259 18.5508 26.0259C19.0547 26.0259 19.5591 25.8312 20.2114 25.4419C22.5473 24.0459 24.5964 21.7265 26.3018 18.548C27.5442 16.2311 28.3151 13.8347 28.5762 11.5202C30.6878 10.7451 32.9065 10.3513 35.1825 10.3513C37.8989 10.3513 40.5225 10.9061 42.9804 12.0001C43.1366 12.0695 43.2997 12.1025 43.4603 12.1025C43.9128 12.1025 44.3447 11.841 44.5406 11.4009C44.8059 10.8046 44.5378 10.1061 43.9414 9.84064C41.1791 8.61123 38.2321 7.98791 35.1824 7.98791C32.9386 7.98791 30.7438 8.32916 28.6355 9.00169C28.4687 7.71744 27.8052 7.29076 26.8057 6.75287L19.1136 2.60185C18.7634 2.41283 18.3414 2.41283 17.9911 2.60185L10.2947 6.75486C9.14484 7.37373 8.43949 7.84435 8.42461 9.64435C8.4 12.5259 9.22137 15.6047 10.7998 18.5481C11.8818 20.5647 13.1036 22.2344 14.4498 23.5436C13.8805 25.4944 13.5915 27.5234 13.5915 29.5865C13.5915 31.5684 13.8596 33.524 14.3897 35.4179C13.3766 35.6799 12.4173 36.1103 11.559 36.686C11.1799 34.8596 9.47508 33.4774 7.43461 33.4774H4.20363C1.88578 33.4774 0 35.2607 0 37.4529V53.2158C0 55.4062 1.88578 57.1881 4.20363 57.1881H7.43461C9.75246 57.1881 11.6382 55.4062 11.6382 53.2158V53.1908L19.1279 56.5498C19.153 56.5611 19.1786 56.5714 19.2043 56.5808C21.5252 57.4329 24.4877 57.491 32.7171 57.5335C38.9476 57.5402 39.7614 57.5402 40.9437 57.5402C43.9191 57.5402 45.4406 57.2705 47.1361 55.6021C50.6634 52.3414 54.191 49.0835 57.7211 45.8232L58.5311 45.0751C59.4783 44.2013 59.9999 43.0273 59.9999 41.7698C60 40.5124 59.4784 39.3384 58.5323 38.4657ZM9.27469 53.2158C9.27469 54.1029 8.44934 54.8246 7.43473 54.8246H4.20363C3.18902 54.8246 2.36367 54.1029 2.36367 53.2158V37.4529C2.36367 36.5791 3.20625 35.8409 4.20363 35.8409H7.43461C8.43199 35.8409 9.27457 36.5792 9.27457 37.4529V53.2158H9.27469ZM12.8828 17.4308C11.4913 14.8361 10.767 12.1505 10.7883 9.66404C10.7907 9.3624 10.8131 9.22904 10.8253 9.17818C10.9199 9.10259 11.1817 8.96162 11.415 8.83599L18.5524 4.98451L25.6563 8.81806L25.6855 8.83376C25.9191 8.95951 26.1812 9.1006 26.2762 9.17654C26.2884 9.22775 26.3107 9.36205 26.3132 9.66591C26.3374 12.1454 25.6131 14.8304 24.2187 17.4305C22.7186 20.2265 20.9623 22.2392 18.9994 23.4125C18.7377 23.5687 18.611 23.629 18.5514 23.6522C18.4921 23.6289 18.3662 23.5687 18.107 23.4135C18.1066 23.4133 18.1064 23.4131 18.1061 23.4129C16.1668 22.254 14.3606 20.1852 12.8828 17.4308ZM56.928 43.3385L56.1176 44.0869C52.5826 47.3519 49.0502 50.6142 45.5179 53.8795C45.5081 53.8884 45.4986 53.8974 45.4894 53.9067C44.4936 54.8906 43.7763 55.1766 40.9439 55.1766C39.7618 55.1766 38.9484 55.1766 32.7247 55.1699C25.1926 55.1309 22.0307 55.0865 20.0562 54.3754L11.6385 50.6001V39.7266C12.8869 38.3169 14.7546 37.4853 16.7128 37.4853H35.312C36.0864 37.4853 36.7594 37.871 37.098 38.4347C37.1045 38.4466 37.1106 38.4585 37.1174 38.47C37.253 38.7084 37.3312 38.9761 37.3312 39.2602C37.3312 40.2388 36.4254 41.0349 35.312 41.0349H27.7375C25.5184 41.0349 23.7131 42.7438 23.7131 44.8444C23.7131 46.9431 25.5185 48.6506 27.7354 48.6506L29.4348 48.6536C33.0416 48.6601 37.8165 48.6686 40.9546 48.677C40.969 48.6772 40.983 48.6772 40.9973 48.6772C43.0972 48.677 44.4525 48.3288 45.259 47.5827L53.2526 40.2008C54.2486 39.2795 55.9315 39.2794 56.9287 40.2018C57.3852 40.623 57.6366 41.1799 57.6366 41.7698C57.6363 42.3599 57.385 42.9168 56.928 43.3385Z" fill="black"/>
<path d="M48.0102 14.8889C48.3127 14.8889 48.6151 14.7736 48.8459 14.5429C49.3075 14.0813 49.3075 13.333 48.8459 12.8714L48.8426 12.8681C48.3811 12.4069 47.6344 12.4083 47.1729 12.8699C46.7113 13.3314 46.713 14.0813 47.1745 14.543C47.4053 14.7736 47.7077 14.8889 48.0102 14.8889Z" fill="black"/>
<path d="M18.0341 17.0251C18.342 17.0251 18.6492 16.9055 18.8805 16.6682L23.0514 12.3895C23.5069 11.922 23.4974 11.1738 23.0299 10.7183C22.5626 10.2627 21.8143 10.2721 21.3587 10.7396L17.9965 14.189L16.8296 13.0968C16.3532 12.6508 15.6054 12.6753 15.1591 13.1521C14.7131 13.6286 14.7378 14.3765 15.2143 14.8225L17.2267 16.7062C17.4544 16.9193 17.7445 17.0251 18.0341 17.0251Z" fill="black"/>
</svg>
