<svg width="60" height="60" viewBox="0 0 60 60" fill="none" xmlns="http://www.w3.org/2000/svg">
<g clip-path="url(#clip0_1_965)">
<path d="M33.9213 38.8691L9.35143 10.3747L11.2423 8.73595L32.6209 33.5909L33.1341 34.1875L33.4562 33.4694L44.0171 9.924L46.282 10.9307L33.9213 38.8691Z" fill="#010101" stroke="white"/>
<path d="M52.6053 50.2911L51.0864 52.3163L33.6658 38.3453L33.3988 38.1311L33.1026 38.3025L8.82633 52.3481L7.56729 50.2078L33.6599 34.93L52.6053 50.2911Z" fill="#010101" stroke="white"/>
<path d="M33.5294 45.4412C38.5 45.4412 42.5295 41.4118 42.5295 36.4412C42.5295 31.4706 38.5 27.4412 33.5294 27.4412C28.5588 27.4412 24.5294 31.4706 24.5294 36.4412C24.5294 41.4118 28.5588 45.4412 33.5294 45.4412Z" fill="#FCBC04"/>
<g opacity="0.1">
<path d="M42.0001 33.2648C38.6471 31.5 34.2353 32.0295 31.4119 34.853C28.7648 37.5001 28.0589 41.206 29.2942 44.3824C28.5884 44.0294 27.706 43.5001 27.1766 42.7942C23.6472 39.2648 23.6472 33.4413 27.1766 29.9117C30.706 26.3822 36.5295 26.3823 40.059 29.9117C40.9412 30.9705 41.6471 32.2058 42.0001 33.2648Z" fill="#030303"/>
</g>
<path d="M45.353 15.9706C48.6667 15.9706 51.3529 13.2843 51.3529 9.97057C51.3529 6.65687 48.6667 3.97058 45.353 3.97058C42.0393 3.97058 39.353 6.65687 39.353 9.97057C39.353 13.2843 42.0393 15.9706 45.353 15.9706Z" fill="#7D3BFF"/>
<path d="M7.76476 57.6177C11.0785 57.6177 13.7647 54.9314 13.7647 51.6177C13.7647 48.304 11.0785 45.6177 7.76476 45.6177C4.45106 45.6177 1.76477 48.304 1.76477 51.6177C1.76477 54.9314 4.45106 57.6177 7.76476 57.6177Z" fill="#010101"/>
<path d="M52.2353 57.6177C55.549 57.6177 58.2353 54.9314 58.2353 51.6177C58.2353 48.304 55.549 45.6177 52.2353 45.6177C48.9216 45.6177 46.2354 48.304 46.2354 51.6177C46.2354 54.9314 48.9216 57.6177 52.2353 57.6177Z" fill="#7D3BFF"/>
<path d="M10.0588 16.1471C13.8598 16.1471 16.9412 13.0657 16.9412 9.26475C16.9412 5.46376 13.8598 2.38245 10.0588 2.38245C6.25786 2.38245 3.17654 5.46376 3.17654 9.26475C3.17654 13.0657 6.25786 16.1471 10.0588 16.1471Z" fill="#7D3BFF"/>
<path d="M28.0477 42.0781L28.0529 42.0836L28.0582 42.089C31.0828 45.1135 35.9798 45.0986 39.1663 42.0995L39.1718 42.0944L39.1772 42.089C42.2017 39.0645 42.1868 34.1675 39.1877 30.9809L39.1773 30.9699L39.1663 30.9595C35.9798 27.9605 31.0828 27.9455 28.0582 30.9701C25.0337 33.9946 25.0486 38.8916 28.0477 42.0781ZM26.2947 43.8525C22.2547 39.8124 22.2547 33.2467 26.2947 29.2066C30.3348 25.1665 36.9006 25.1665 40.9406 29.2066C44.9795 33.2455 44.9807 39.8085 40.9443 43.8489C36.7218 47.8987 30.3298 47.8874 26.2947 43.8525Z" fill="#010101" stroke="white"/>
<path d="M40.2359 5.03012L40.236 5.03011C43.0407 2.22531 47.6653 2.22532 50.47 5.0301C53.2747 7.83491 53.2748 12.4595 50.47 15.2642C47.6652 18.0689 43.0406 18.0688 40.236 15.2642C37.4312 12.4594 37.4312 7.83478 40.2359 5.03012ZM42.0185 6.59902L42.0087 6.60781L41.9994 6.61711C40.2159 8.40064 40.2159 11.5407 41.9994 13.3242C43.783 15.1077 46.923 15.1077 48.7065 13.3242C50.4901 11.5407 50.4901 8.40064 48.7065 6.61711C46.9134 4.82395 43.9626 4.84922 42.0185 6.59902Z" fill="#010101" stroke="white"/>
<path d="M7.76476 57.6177C11.0785 57.6177 13.7647 54.9314 13.7647 51.6177C13.7647 48.304 11.0785 45.6177 7.76476 45.6177C4.45106 45.6177 1.76477 48.304 1.76477 51.6177C1.76477 54.9314 4.45106 57.6177 7.76476 57.6177Z" fill="#7D3BFF"/>
<path d="M12.5001 51.6178V51.6178C12.5 49.0475 10.335 46.8824 7.76474 46.8824C5.19451 46.8824 3.0294 49.0474 3.0294 51.6178C3.0294 54.188 5.19437 56.3531 7.76474 56.3531C10.3351 56.3531 12.5001 54.1881 12.5001 51.6178ZM7.76474 58.8824C3.80553 58.8824 0.5 55.5769 0.5 51.6178C0.5 47.6587 3.80554 44.353 7.76474 44.353C11.7239 44.353 15.0295 47.6586 15.0295 51.6178C15.0295 55.577 11.7238 58.8824 7.76474 58.8824Z" fill="#010101" stroke="white"/>
<path d="M56.9707 51.6178V51.6177C56.9706 49.0475 54.8056 46.8824 52.2354 46.8824C49.6651 46.8824 47.5 49.0474 47.5 51.6178C47.5 54.188 49.665 56.3531 52.2354 56.3531C54.8056 56.3531 56.9707 54.1881 56.9707 51.6178ZM52.2354 58.8824C48.2761 58.8824 44.9706 55.5769 44.9706 51.6176C44.9706 47.6584 48.2761 44.3529 52.2354 44.3529C56.1946 44.3529 59.5001 47.6584 59.5001 51.6176C59.5001 55.5768 56.1944 58.8824 52.2354 58.8824Z" fill="#010101" stroke="white"/>
<path d="M10.0588 17.4118C5.57029 17.4118 1.91177 13.7533 1.91177 9.26474C1.91177 4.77619 5.57029 1.11768 10.0588 1.11768C14.5474 1.11768 18.2059 4.77619 18.2059 9.26474C18.2059 13.7533 14.5474 17.4118 10.0588 17.4118ZM10.0588 3.47059C6.95913 3.47059 4.44117 5.98855 4.44117 9.08825C4.44117 12.188 6.95913 14.7059 10.0588 14.7059C13.1586 14.7059 15.6765 12.188 15.6765 9.08825C15.6765 5.98855 13.1586 3.47059 10.0588 3.47059Z" fill="#010101" stroke="white"/>
</g>
<defs>
<clipPath id="clip0_1_965">
<rect width="60" height="60" fill="white"/>
</clipPath>
</defs>
</svg>
